<?xml version="1.0" encoding="utf-8"?>
<!-- Generator: Adobe Illustrator 24.3.0, SVG Export Plug-In . SVG Version: 6.00 Build 0)  -->
<svg version="1.1" id="Capa_1" xmlns="http://www.w3.org/2000/svg" xmlns:xlink="http://www.w3.org/1999/xlink" x="0px" y="0px"
	 viewBox="0 0 871 127.2" style="enable-background:new 0 0 871 127.2;" xml:space="preserve">
<g id="Capa_1_1_">
</g>
<g id="Capa_2_1_">
	<g>
		<g>
			<path d="M33.9,97.8c-0.4,0-0.8-0.1-1.2-0.2c-1.5-0.6-2.2-2.4-1.5-3.9l27.3-62.4c0.5-1.1,1.5-1.8,2.7-1.8l0,0
				c1.2,0,2.2,0.7,2.7,1.8L91,93.7c0.6,1.5,0,3.2-1.5,3.9c-1.5,0.6-3.2,0-3.9-1.5L61.2,39.7L36.6,96C36.1,97.1,35.1,97.8,33.9,97.8z
				"/>
		</g>
		<g>
			<path d="M782.7,97.8c-0.4,0-0.8-0.1-1.2-0.2c-1.5-0.6-2.2-2.4-1.5-3.9l27.3-62.4c0.5-1.1,1.5-1.8,2.7-1.8l0,0
				c1.2,0,2.2,0.7,2.7,1.8l27.1,62.4c0.6,1.5,0,3.2-1.5,3.9c-1.5,0.6-3.2,0-3.9-1.5L810,39.7L785.4,96
				C784.9,97.1,783.9,97.8,782.7,97.8z"/>
		</g>
		<g>
			<path d="M610.2,97.8L610.2,97.8c-1.2,0-2.2-0.7-2.7-1.8L586,46.5v17.2c0,1.6-1.3,2.9-2.9,2.9c-1.6,0-2.9-1.3-2.9-2.9V32.4
				c0-1.4,1-2.6,2.3-2.9c1.4-0.3,2.7,0.4,3.3,1.7l24.4,56.3l24.6-56.3c0.6-1.3,1.9-2,3.3-1.7c1.4,0.3,2.3,1.5,2.3,2.9v31.3
				c0,1.6-1.3,2.9-2.9,2.9s-2.9-1.3-2.9-2.9V46.4L612.9,96C612.4,97.1,611.4,97.8,610.2,97.8z"/>
		</g>
		<g>
			<path d="M193.7,97.9c-0.9,0-1.9-0.4-2.5-1.3l-19.7-27.4c-1-1.4-0.7-3.3,0.7-4.2c1.4-1,3.3-0.7,4.2,0.7l19.7,27.4
				c1,1.4,0.7,3.3-0.7,4.2C195,97.7,194.3,97.9,193.7,97.9z"/>
		</g>
		<g>
			<path d="M179.2,70.4H174c-1.6,0-2.9-1.3-2.9-2.9s1.3-2.9,2.9-2.9h5.2c8.1,0,14.6-6.6,14.6-14.6s-6.5-14.6-14.6-14.6h-17
				c-1.6,0-2.9-1.3-2.9-2.9c0-1.6,1.3-2.9,2.9-2.9h17c11.3,0,20.5,9.2,20.5,20.5S190.4,70.4,179.2,70.4z"/>
		</g>
		<g>
			<path d="M293,97.9c-18.9,0-34.3-15.4-34.3-34.3s15.4-34.3,34.3-34.3c10.9,0,20.9,5,27.4,13.7c1,1.3,0.7,3.1-0.6,4.1
				c-1.3,1-3.1,0.7-4.1-0.6c-5.4-7.2-13.7-11.4-22.8-11.4c-15.7,0-28.4,12.7-28.4,28.4S277.3,92,293,92c12,0,22.7-7.6,26.8-18.8
				c0.5-1.5,2.2-2.3,3.7-1.8s2.3,2.2,1.8,3.7C320.4,88.8,307.4,97.9,293,97.9z"/>
		</g>
		<g>
			<path d="M390.5,97.7c-1.6,0-2.9-1.3-2.9-2.9V32.4c0-1.6,1.3-2.9,2.9-2.9s2.9,1.3,2.9,2.9v62.4C393.5,96.4,392.2,97.7,390.5,97.7z
				"/>
		</g>
		<g>
			<path d="M431.8,97.7c-1.6,0-2.9-1.3-2.9-2.9V32.4c0-1.6,1.3-2.9,2.9-2.9s2.9,1.3,2.9,2.9v62.4C434.7,96.4,433.4,97.7,431.8,97.7z
				"/>
		</g>
		<g>
			<path d="M504.8,97.7c-1.6,0-2.9-1.3-2.9-2.9V32.4c0-1.6,1.3-2.9,2.9-2.9s2.9,1.3,2.9,2.9v62.4C507.7,96.4,506.4,97.7,504.8,97.7z
				"/>
		</g>
		<g>
			<path d="M713.9,97.7c-1.6,0-2.9-1.3-2.9-2.9V32.4c0-1.6,1.3-2.9,2.9-2.9s2.9,1.3,2.9,2.9v62.4C716.8,96.4,715.5,97.7,713.9,97.7z
				"/>
		</g>
		<g>
			<path d="M431.8,66.5h-27.1c-1.6,0-2.9-1.3-2.9-2.9s1.3-2.9,2.9-2.9h27.1c1.6,0,2.9,1.3,2.9,2.9C434.7,65.2,433.4,66.5,431.8,66.5
				z"/>
		</g>
	</g>
</g>
</svg>
